<svg t="1618399370821" class="icon" viewBox="0 0 1024 1024" version="1.1" xmlns="http://www.w3.org/2000/svg" p-id="7528" width="64" height="64"><path d="M298.666667 192h42.666666v85.333333a64 64 0 0 0 60.245334 63.893334L405.333333 341.333333h213.333334a64 64 0 0 0 63.893333-60.245333L682.666667 277.333333V192h42.666666a64 64 0 0 1 64 64v533.333333a64 64 0 0 1-64 64H298.666667a64 64 0 0 1-64-64V256a64 64 0 0 1 64-64z m256 341.333333h-192v64h192v-64z m106.666666-128H362.666667v64h298.666666v-64zM576 128a64 64 0 0 1 64 64v42.666667a64 64 0 0 1-64 64h-128a64 64 0 0 1-64-64V192a64 64 0 0 1 64-64h128z m0 64h-128v42.666667h128V192z" p-id="7529"></path></svg>