<svg t="1618399268023" class="icon" viewBox="0 0 1024 1024" version="1.1" xmlns="http://www.w3.org/2000/svg" p-id="7389" width="64" height="64"><path d="M507.498667 138.752l5.312-0.085333a170.624 170.624 0 0 1 170.538666 165.312l0.085334 5.312V384H725.333333v-106.666667h25.898667a64 64 0 0 1 63.829333 59.264l33.173334 448A64 64 0 0 1 784.426667 853.333333H239.573333a64 64 0 0 1-63.808-68.736l33.173334-448A64 64 0 0 1 272.768 277.333333h25.877333L298.666667 384h43.52v-74.709333a170.624 170.624 0 0 1 165.312-170.538667l5.312-0.085333zM630.165333 512c-42.816 120.512-196.266667 120.512-226.88 2.666667L341.333333 530.752c46.976 180.842667 285.824 180.842667 349.12 2.666667L630.144 512zM512.789333 202.666667a106.666667 106.666667 0 0 0-101.76 74.666666h203.52a106.666667 106.666667 0 0 0-101.76-74.666666z" p-id="7390"></path></svg>